# File created by Blade
# Date/Time:  Tue Apr 07 20:53:11 2015
# Frame Rate: 120.000 fps
#------------------------------------------------------
:FULLY-SPECIFIED
:DEGREES
970
root 38.999497 31.785555 2.979560 54.451374 -82.372001 -398.581907
Spine -9.712556 -10.457041 2.560921
Head 15.921758 -3.180408 2.753016
LeftShoulder -19.429692 36.036393 21.310251
LeftArm 75.989389 -63.063868 -96.709248
LeftForeArm 11.766660 0.000000 18.681456
LeftHand 2.936033 -0.000000 14.663286
LeftHandThumb1 -26.253704 0.000000 33.147579
RightShoulder -9.957188 9.087213 -34.809704
RightArm 13.909989 19.863758 39.471812
RightForeArm -16.608815 -0.000000 6.837356
RightHand 5.755178 -0.000000 -2.517153
RightHandThumb1 -24.326973 -0.000000 -32.862282
LeftUpLeg -3.872304 -3.799972 2.303784
LeftLeg 3.827556 -0.000000 -0.000000
LeftFoot -17.048599 0.259756 -24.674229
LeftToeBase -5.326265 -0.000000 0.000000
RightUpLeg -45.594390 0.427596 4.535255
RightLeg 11.548647 -0.000000 -0.000000
RightFoot 23.350092 -12.337103 3.101636
RightToeBase -6.713802 -0.000000 0.000000
971
root 38.886351 31.764903 2.969367 54.228208 -82.340203 -398.312556
Spine -9.749641 -10.435300 2.506156
Head 16.143051 -3.128521 2.633627
LeftShoulder -19.470243 36.275047 20.906861
LeftArm 75.072502 -62.096527 -96.006391
LeftForeArm 11.181465 0.000000 17.857167
LeftHand 2.808654 -0.000000 14.469333
LeftHandThumb1 -26.253704 0.000000 33.147579
RightShoulder -9.778020 8.718131 -34.515299
RightArm 14.025399 19.682903 40.062142
RightForeArm -16.297526 0.000000 6.699988
RightHand 5.603090 0.000000 -2.207679
RightHandThumb1 -24.326973 -0.000000 -32.862282
LeftUpLeg -3.714243 -3.891389 2.330907
LeftLeg 3.825827 -0.000000 -0.000000
LeftFoot -17.102424 0.326176 -24.468407
LeftToeBase -5.523924 -0.000000 0.000000
RightUpLeg -45.885412 0.169586 4.794642
RightLeg 10.298277 -0.000000 -0.000000
RightFoot 25.265090 -12.926596 3.071428
RightToeBase -5.376234 -0.000000 0.000000
972
root 38.763736 31.742304 2.958386 53.948966 -82.298710 -397.978515
Spine -9.826938 -10.448102 2.464742
Head 16.408350 -3.083117 2.499745
LeftShoulder -19.828554 36.973619 20.102227
LeftArm 75.551353 -61.019010 -96.250357
LeftForeArm 10.700786 -0.000000 16.881100
LeftHand 2.740744 0.000000 14.052896
LeftHandThumb1 -26.253704 0.000000 33.147579
RightShoulder -9.569379 8.298373 -34.228026
RightArm 14.130801 19.499199 40.646310
RightForeArm -15.921929 -0.000000 6.698825
RightHand 5.417311 -0.000000 -1.884734
RightHandThumb1 -24.326973 -0.000000 -32.862282
LeftUpLeg -3.554973 -3.929813 2.367471
LeftLeg 3.837702 -0.000000 -0.000000
LeftFoot -17.106375 0.276929 -24.269567
LeftToeBase -5.733926 -0.000000 0.000000
RightUpLeg -46.185191 -0.150408 5.123391
RightLeg 9.147243 -0.000000 -0.000000
RightFoot 26.838241 -13.508934 3.098201
RightToeBase -4.159000 -0.000000 0.000000
973
root 38.636527 31.717909 2.945607 53.311086 -82.234679 -397.302470
Spine -9.873488 -10.490476 2.383757
Head 16.672824 -3.067264 2.429117
LeftShoulder -19.876407 37.229983 19.696781
LeftArm 74.759140 -60.113217 -95.492682
LeftForeArm 10.270854 -0.000000 16.032611
LeftHand 2.650501 -0.000000 13.559120
LeftHandThumb1 -26.253704 0.000000 33.147579
RightShoulder -9.400498 7.874261 -33.908824
RightArm 14.312579 19.355652 41.202546
RightForeArm -15.544153 0.000000 6.592568
RightHand 5.464797 -0.000000 -1.826673
RightHandThumb1 -24.326973 -0.000000 -32.862282
LeftUpLeg -3.413495 -4.001249 2.400000
LeftLeg 3.941127 -0.000000 -0.000000
LeftFoot -17.147141 0.169625 -24.057115
LeftToeBase -5.978422 -0.000000 0.000000
RightUpLeg -46.495704 -0.515287 5.463113
RightLeg 8.162043 -0.000000 -0.000000
RightFoot 28.070588 -14.138122 3.246895
RightToeBase -2.905509 -0.000000 0.000000
974
root 38.501247 31.689351 2.934185 52.348572 -82.178000 -396.304062
Spine -9.926191 -10.575732 2.266159
Head 16.944637 -3.030830 2.368336
LeftShoulder -19.845355 37.401955 19.390281
LeftArm 73.885813 -59.299501 -94.736312
LeftForeArm 10.020284 0.000000 15.289689
LeftHand 2.421655 -0.000000 12.896711
LeftHandThumb1 -26.253704 0.000000 33.147579
RightShoulder -9.217681 7.586839 -33.588437
RightArm 14.439920 19.174302 41.684806
RightForeArm -15.255898 -0.000000 6.461582
RightHand 5.468947 -0.000000 -1.776666
RightHandThumb1 -24.326973 -0.000000 -32.862282
LeftUpLeg -3.280801 -4.131831 2.395973
LeftLeg 4.105127 -0.000000 -0.000000
LeftFoot -17.259175 0.079503 -23.896085
LeftToeBase -6.210154 -0.000000 0.000000
RightUpLeg -46.820404 -0.920957 5.798861
RightLeg 7.315722 -0.000000 -0.000000
RightFoot 29.070243 -14.594220 3.327722
RightToeBase -2.293439 -0.000000 0.000000
975
root 38.361625 31.658473 2.921028 51.191326 -82.113452 -395.136197
Spine -9.941727 -10.658719 2.102427
Head 17.198585 -3.054062 2.368325
LeftShoulder -19.404154 37.093303 19.594921
LeftArm 71.577516 -58.633673 -92.955040
LeftForeArm 9.673694 0.000000 14.729305
LeftHand 2.340275 -0.000000 12.541691
LeftHandThumb1 -26.253704 0.000000 33.147579
RightShoulder -9.075893 7.258175 -33.226757
RightArm 14.604490 18.983431 42.112253
RightForeArm -15.027907 -0.000000 6.366527
RightHand 5.502441 -0.000000 -1.704344
RightHandThumb1 -24.326973 -0.000000 -32.862282
LeftUpLeg -3.157344 -4.244451 2.381170
LeftLeg 4.349871 -0.000000 -0.000000
LeftFoot -17.378936 -0.066149 -23.740538
LeftToeBase -6.627624 -0.000000 0.000000
RightUpLeg -47.157212 -1.311103 6.086052
RightLeg 6.629001 -0.000000 -0.000000
RightFoot 29.805488 -15.079953 3.699098
RightToeBase -1.506414 -0.000000 0.000000
976
root 38.218410 31.622969 2.911860 49.801191 -82.049245 -393.750666
Spine -9.917746 -10.788918 1.932594
Head 17.397759 -3.023373 2.332196
LeftShoulder -19.356026 37.272386 19.345978
LeftArm 70.840902 -57.836842 -92.343622
LeftForeArm 9.396034 -0.000000 14.097703
LeftHand 2.331828 0.000000 12.315882
LeftHandThumb1 -26.253704 0.000000 33.147579
RightShoulder -8.949180 7.110393 -32.898796
RightArm 14.712642 18.839806 42.492148
RightForeArm -15.099594 -0.000000 6.260041
RightHand 5.623378 -0.000000 -1.482776
RightHandThumb1 -24.326973 -0.000000 -32.862282
LeftUpLeg -3.053410 -4.356123 2.343602
LeftLeg 4.681063 -0.000000 -0.000000
LeftFoot -17.505065 -0.299503 -23.549562
LeftToeBase -7.174471 -0.000000 0.000000
RightUpLeg -47.489487 -1.710061 6.334016
RightLeg 6.026106 -0.000000 -0.000000
RightFoot 30.549616 -15.245821 3.896343
RightToeBase -1.265509 -0.000000 0.000000
977
root 38.071022 31.584257 2.903950 48.104151 -81.973763 -392.055280
Spine -9.885280 -10.942970 1.727682
Head 17.568293 -2.977591 2.328699
LeftShoulder -19.328270 37.461864 19.102683
LeftArm 70.249379 -57.029688 -91.875600
LeftForeArm 9.081804 -0.000000 13.546505
LeftHand 2.489024 0.000000 12.314639
LeftHandThumb1 -26.253704 0.000000 33.147579
RightShoulder -8.830708 7.011705 -32.575413
RightArm 14.790004 18.682288 42.833346
RightForeArm -15.162054 -0.000000 6.134910
RightHand 5.808030 -0.000000 -1.397129
RightHandThumb1 -24.326973 -0.000000 -32.862282
LeftUpLeg -2.977673 -4.538889 2.280205
LeftLeg 5.096022 -0.000000 -0.000000
LeftFoot -17.637749 -0.511511 -23.296582
LeftToeBase -7.828601 -0.000000 0.000000
RightUpLeg -47.849525 -2.114467 6.548758
RightLeg 5.527764 -0.000000 -0.000000
RightFoot 31.272235 -15.439358 4.151512
RightToeBase -0.780996 -0.000000 0.000000
978
root 37.919631 31.540600 2.896388 46.399089 -81.912314 -390.395754
Spine -9.765600 -11.049243 1.501194
Head 17.636230 -2.932031 2.311528
LeftShoulder -19.343099 37.950792 18.751643
LeftArm 70.294286 -56.251759 -91.998230
LeftForeArm 8.637964 0.000000 13.163874
LeftHand 2.559295 0.000000 12.495554
LeftHandThumb1 -26.253704 0.000000 33.147579
RightShoulder -8.776195 6.943846 -32.303121
RightArm 14.864211 18.579380 43.200045
RightForeArm -15.231299 0.000000 6.109258
RightHand 5.703038 0.000000 -1.330519
RightHandThumb1 -24.326973 -0.000000 -32.862282
LeftUpLeg -2.895130 -4.742109 2.202917
LeftLeg 5.609194 -0.000000 -0.000000
LeftFoot -17.824876 -0.726335 -22.982748
LeftToeBase -8.484938 -0.000000 0.000000
RightUpLeg -48.167781 -2.424864 6.666475
RightLeg 5.093335 -0.000000 -0.000000
RightFoot 32.024895 -15.572415 4.479131
RightToeBase -0.204765 -0.000000 0.000000
979
root 37.764677 31.492246 2.891884 44.620635 -81.853226 -388.690047
Spine -9.607448 -11.153587 1.266013
Head 17.679435 -2.869648 2.296910
LeftShoulder -19.300682 38.177876 18.533339
LeftArm 70.097419 -55.505283 -92.007487
LeftForeArm 8.265255 -0.000000 12.838549
LeftHand 2.727029 -0.000000 12.732295
LeftHandThumb1 -26.253704 0.000000 33.147579
RightShoulder -8.729925 6.917789 -32.073900
RightArm 14.841424 18.057140 43.417817
RightForeArm -14.859144 -0.000000 6.166331
RightHand 5.608711 -0.000000 -1.249437
RightHandThumb1 -24.326973 -0.000000 -32.862282
LeftUpLeg -2.794942 -5.059877 2.095080
LeftLeg 6.154480 -0.000000 -0.000000
LeftFoot -18.090247 -0.782317 -22.576697
LeftToeBase -9.172455 -0.000000 0.000000
RightUpLeg -48.473846 -2.677808 6.686928
RightLeg 4.773330 -0.000000 -0.000000
RightFoot 32.781747 -15.477660 4.683450
RightToeBase 0.563287 -0.000000 -0.000000
980
root 37.603517 31.439324 2.891070 42.744213 -81.827674 -386.923355
Spine -9.394767 -11.209888 1.002547
Head 17.666806 -2.811125 2.247691
LeftShoulder -19.237949 38.328640 18.312876
LeftArm 69.931452 -54.805313 -91.997140
LeftForeArm 7.935259 -0.000000 12.504554
LeftHand 2.908924 -0.000000 12.765194
LeftHandThumb1 -26.253704 0.000000 33.147579
RightShoulder -8.675035 6.871129 -31.887211
RightArm 14.821189 17.844946 43.712410
RightForeArm -14.711883 -0.000000 6.253474
RightHand 5.469959 -0.000000 -1.221494
RightHandThumb1 -24.326973 -0.000000 -32.862282
LeftUpLeg -2.675000 -5.222204 1.934554
LeftLeg 6.735096 -0.000000 -0.000000
LeftFoot -18.309892 -0.931449 -22.191700
LeftToeBase -9.981119 -0.000000 0.000000
RightUpLeg -48.733568 -2.840518 6.570735
RightLeg 4.510331 -0.000000 -0.000000
RightFoot 33.572513 -15.398253 5.094197
RightToeBase 0.328533 -0.000000 -0.000000
